<svg width="22" height="22" viewBox="0 0 22 22" fill="none" xmlns="http://www.w3.org/2000/svg">
<path d="M10.0832 8.25001H11.9165V5.50001H14.6665V3.66667H11.9165V0.916672H10.0832V3.66667H7.33317V5.50001H10.0832V8.25001ZM6.4165 16.5C5.40817 16.5 4.59234 17.325 4.59234 18.3333C4.59234 19.3417 5.40817 20.1667 6.4165 20.1667C7.42484 20.1667 8.24984 19.3417 8.24984 18.3333C8.24984 17.325 7.42484 16.5 6.4165 16.5ZM15.5832 16.5C14.5748 16.5 13.759 17.325 13.759 18.3333C13.759 19.3417 14.5748 20.1667 15.5832 20.1667C16.5915 20.1667 17.4165 19.3417 17.4165 18.3333C17.4165 17.325 16.5915 16.5 15.5832 16.5ZM6.57234 13.5208L6.59984 13.4108L7.42484 11.9167H14.254C14.9415 11.9167 15.5465 11.5408 15.8582 10.9725L19.3965 4.54667L17.8015 3.66667H17.7923L16.784 5.50001L14.254 10.0833H7.819L7.69984 9.83584L5.6465 5.50001L4.77567 3.66667L3.914 1.83334H0.916504V3.66667H2.74984L6.04984 10.6242L4.81234 12.87C4.66567 13.1267 4.58317 13.4292 4.58317 13.75C4.58317 14.7583 5.40817 15.5833 6.4165 15.5833H17.4165V13.75H6.8015C6.68234 13.75 6.57234 13.6492 6.57234 13.5208Z" fill="black"/>
</svg>
