<svg width="22" height="22" viewBox="0 0 22 22" fill="none" xmlns="http://www.w3.org/2000/svg">
<path d="M16.5002 9.60663L20.1668 5.95829V16.0416L16.5002 12.3933V16.5C16.5002 17.5083 15.6752 18.3333 14.6668 18.3333H3.66683C2.6585 18.3333 1.8335 17.5083 1.8335 16.5V5.49996C1.8335 4.49163 2.6585 3.66663 3.66683 3.66663H14.6668C15.6752 3.66663 16.5002 4.49163 16.5002 5.49996V9.60663ZM14.6668 8.88246V5.49996H3.66683V16.5H14.6668V8.88246V8.88246ZM9.16683 11C8.1585 11 7.3335 10.175 7.3335 9.16663C7.3335 8.15829 8.1585 7.33329 9.16683 7.33329C10.1752 7.33329 11.0002 8.15829 11.0002 9.16663C11.0002 10.175 10.1752 11 9.16683 11ZM9.16683 11.9166C10.3952 11.9166 12.8335 12.5308 12.8335 13.75V14.6666H5.50016V13.75C5.50016 12.5308 7.9385 11.9166 9.16683 11.9166Z" fill="black"/>
</svg>
