<svg width="10" height="10" viewBox="0 0 10 10" fill="none" xmlns="http://www.w3.org/2000/svg">
<path d="M6.24984 1.25H2.49984C2.154 1.25 1.85817 1.45833 1.73317 1.75833L0.474837 4.69583C0.437337 4.79167 0.416504 4.89167 0.416504 5V5.83333C0.416504 6.29167 0.791504 6.66667 1.24984 6.66667H3.879L3.48317 8.57083L3.47067 8.70417C3.47067 8.875 3.5415 9.03333 3.654 9.14583L4.09567 9.58333L6.8415 6.8375C6.9915 6.6875 7.08317 6.47917 7.08317 6.25V2.08333C7.08317 1.625 6.70817 1.25 6.24984 1.25ZM7.9165 1.25V6.25H9.58317V1.25H7.9165Z" fill="white"/>
</svg>
