<svg width="10" height="10" viewBox="0 0 10 10" fill="none" xmlns="http://www.w3.org/2000/svg">
<path d="M0.416504 8.75008H2.08317V3.75008H0.416504V8.75008ZM9.58317 4.16675C9.58317 3.70841 9.20817 3.33341 8.74984 3.33341H6.12067L6.5165 1.42925L6.529 1.29591C6.529 1.12508 6.45817 0.966748 6.34567 0.854248L5.904 0.416748L3.16234 3.16258C3.00817 3.31258 2.9165 3.52091 2.9165 3.75008V7.91675C2.9165 8.37508 3.2915 8.75008 3.74984 8.75008H7.49984C7.84567 8.75008 8.1415 8.54175 8.2665 8.24175L9.52484 5.30425C9.56234 5.20841 9.58317 5.10841 9.58317 5.00008V4.16675Z" fill="white"/>
</svg>
