<svg width="26" height="16" viewBox="0 0 26 16" fill="none" xmlns="http://www.w3.org/2000/svg">
<rect width="26" height="16" rx="4" fill="#FFC700"/>
<path d="M5.69531 3.89062H6.93555L8.76172 9.11035L10.5879 3.89062H11.8281L9.25977 11H8.26367L5.69531 3.89062ZM5.02637 3.89062H6.26172L6.48633 8.97852V11H5.02637V3.89062ZM11.2617 3.89062H12.502V11H11.0371V8.97852L11.2617 3.89062ZM18.1953 5.21387H19.0352C19.0352 5.60449 18.9749 5.93978 18.8545 6.21973C18.7373 6.49642 18.5501 6.70964 18.293 6.85938C18.0391 7.00586 17.707 7.0791 17.2969 7.0791V6.4834C17.541 6.4834 17.7266 6.43132 17.8535 6.32715C17.9837 6.22298 18.0732 6.0765 18.1221 5.8877C18.1709 5.69889 18.1953 5.47428 18.1953 5.21387ZM13.4639 8.41211V8.30957C13.4639 7.9222 13.5192 7.56576 13.6299 7.24023C13.7406 6.91146 13.9017 6.62663 14.1133 6.38574C14.3281 6.14486 14.5902 5.95768 14.8994 5.82422C15.2087 5.6875 15.5635 5.61914 15.9639 5.61914C16.3643 5.61914 16.7191 5.6875 17.0283 5.82422C17.3408 5.95768 17.6029 6.14486 17.8145 6.38574C18.0293 6.62663 18.1921 6.91146 18.3027 7.24023C18.4134 7.56576 18.4688 7.9222 18.4688 8.30957V8.41211C18.4688 8.79622 18.4134 9.15267 18.3027 9.48145C18.1921 9.80697 18.0293 10.0918 17.8145 10.3359C17.6029 10.5768 17.3424 10.764 17.0332 10.8975C16.724 11.0309 16.3708 11.0977 15.9736 11.0977C15.5732 11.0977 15.2168 11.0309 14.9043 10.8975C14.5918 10.764 14.3281 10.5768 14.1133 10.3359C13.9017 10.0918 13.7406 9.80697 13.6299 9.48145C13.5192 9.15267 13.4639 8.79622 13.4639 8.41211ZM14.8701 8.30957V8.41211C14.8701 8.63346 14.8896 8.84017 14.9287 9.03223C14.971 9.22428 15.0345 9.39355 15.1191 9.54004C15.207 9.68327 15.321 9.79557 15.4609 9.87695C15.6009 9.95833 15.7718 9.99902 15.9736 9.99902C16.1689 9.99902 16.335 9.95833 16.4717 9.87695C16.6117 9.79557 16.724 9.68327 16.8086 9.54004C16.8932 9.39355 16.9551 9.22428 16.9941 9.03223C17.0365 8.84017 17.0576 8.63346 17.0576 8.41211V8.30957C17.0576 8.09473 17.0381 7.8929 16.999 7.7041C16.96 7.51204 16.8965 7.34277 16.8086 7.19629C16.724 7.04655 16.6117 6.92936 16.4717 6.84473C16.3317 6.76009 16.1624 6.71777 15.9639 6.71777C15.7653 6.71777 15.596 6.76009 15.4561 6.84473C15.3193 6.92936 15.207 7.04655 15.1191 7.19629C15.0345 7.34277 14.971 7.51204 14.9287 7.7041C14.8896 7.8929 14.8701 8.09473 14.8701 8.30957ZM15.2998 5.00391L16.2568 3.5H17.7852L16.4424 5.00391H15.2998ZM20.9932 5.7168V11H19.582V5.7168H20.9932ZM19.4941 4.33984C19.4941 4.13477 19.5658 3.96549 19.709 3.83203C19.8522 3.69857 20.0443 3.63184 20.2852 3.63184C20.5228 3.63184 20.7132 3.69857 20.8564 3.83203C21.0029 3.96549 21.0762 4.13477 21.0762 4.33984C21.0762 4.54492 21.0029 4.71419 20.8564 4.84766C20.7132 4.98112 20.5228 5.04785 20.2852 5.04785C20.0443 5.04785 19.8522 4.98112 19.709 4.84766C19.5658 4.71419 19.4941 4.54492 19.4941 4.33984Z" fill="black"/>
</svg>
