<svg width="20" height="20" viewBox="0 0 20 20" fill="none" xmlns="http://www.w3.org/2000/svg">
<path d="M15.8333 2.5H12.35C12 1.53333 11.0833 0.833332 10 0.833332C8.91667 0.833332 8 1.53333 7.65 2.5H4.16667C3.25 2.5 2.5 3.25 2.5 4.16667V15.8333C2.5 16.75 3.25 17.5 4.16667 17.5H15.8333C16.75 17.5 17.5 16.75 17.5 15.8333V4.16667C17.5 3.25 16.75 2.5 15.8333 2.5ZM10 2.5C10.4583 2.5 10.8333 2.875 10.8333 3.33333C10.8333 3.79167 10.4583 4.16667 10 4.16667C9.54167 4.16667 9.16667 3.79167 9.16667 3.33333C9.16667 2.875 9.54167 2.5 10 2.5ZM11.6667 14.1667H5.83333V12.5H11.6667V14.1667ZM14.1667 10.8333H5.83333V9.16667H14.1667V10.8333ZM14.1667 7.5H5.83333V5.83333H14.1667V7.5Z" fill="white"/>
</svg>
