<svg width="114" height="34" viewBox="0 0 114 34" fill="none" xmlns="http://www.w3.org/2000/svg">
<rect width="114" height="34" rx="8" fill="black" fill-opacity="0.5"/>
<path d="M56.9998 21.5833C58.0082 21.5833 58.8332 20.7583 58.8332 19.75C58.8332 18.7416 58.0082 17.9166 56.9998 17.9166C55.9915 17.9166 55.1665 18.7416 55.1665 19.75C55.1665 20.7583 55.9915 21.5833 56.9998 21.5833ZM62.4998 13.3333H61.5832V11.5C61.5832 8.96996 59.5298 6.91663 56.9998 6.91663C54.4698 6.91663 52.4165 8.96996 52.4165 11.5V13.3333H51.4998C50.4915 13.3333 49.6665 14.1583 49.6665 15.1666V24.3333C49.6665 25.3416 50.4915 26.1666 51.4998 26.1666H62.4998C63.5082 26.1666 64.3332 25.3416 64.3332 24.3333V15.1666C64.3332 14.1583 63.5082 13.3333 62.4998 13.3333ZM54.1582 11.5C54.1582 9.93246 55.4323 8.65829 56.9998 8.65829C58.5673 8.65829 59.8415 9.93246 59.8415 11.5V13.3333H54.1582V11.5ZM62.4998 24.3333H51.4998V15.1666H62.4998V24.3333Z" fill="white"/>
</svg>
