<svg width="40" height="40" viewBox="0 0 40 40" fill="none" xmlns="http://www.w3.org/2000/svg">
<g clip-path="url(#clip0_746_152)">
<rect width="40" height="40" rx="20" fill="#8B8C8C"/>
<path d="M20 -3C7.304 -3 -3 7.304 -3 20C-3 32.696 7.304 43 20 43C32.696 43 43 32.696 43 20C43 7.304 32.696 -3 20 -3ZM20 3.9C23.818 3.9 26.9 6.982 26.9 10.8C26.9 14.618 23.818 17.7 20 17.7C16.182 17.7 13.1 14.618 13.1 10.8C13.1 6.982 16.182 3.9 20 3.9ZM20 36.56C14.25 36.56 9.167 33.616 6.2 29.154C6.269 24.577 15.4 22.07 20 22.07C24.577 22.07 33.731 24.577 33.8 29.154C30.833 33.616 25.75 36.56 20 36.56Z" fill="#2D2F30"/>
</g>
<defs>
<clipPath id="clip0_746_152">
<rect width="40" height="40" rx="20" fill="white"/>
</clipPath>
</defs>
</svg>
