<svg width="99" height="19" viewBox="0 0 99 19" fill="none" xmlns="http://www.w3.org/2000/svg">
<path d="M14.0938 15.8438C13.8125 16.1641 13.3945 16.5117 12.8398 16.8867C12.2852 17.2539 11.5664 17.5703 10.6836 17.8359C9.80859 18.1016 8.74609 18.2344 7.49609 18.2344C6.01953 18.2344 4.72266 17.9141 3.60547 17.2734C2.48828 16.625 1.61719 15.6875 0.992188 14.4609C0.375 13.2266 0.0664062 11.7266 0.0664062 9.96094V8.98828C0.0664062 7.22266 0.363281 5.72266 0.957031 4.48828C1.55859 3.25391 2.39844 2.3125 3.47656 1.66406C4.55469 1.01562 5.8125 0.691406 7.25 0.691406C8.75 0.691406 9.98047 0.9375 10.9414 1.42969C11.9023 1.91406 12.6328 2.58594 13.1328 3.44531C13.6406 4.30469 13.957 5.29297 14.082 6.41016H10.5078C10.3828 5.55859 10.082 4.88672 9.60547 4.39453C9.12891 3.90234 8.37891 3.65625 7.35547 3.65625C6.21484 3.65625 5.33594 4.10547 4.71875 5.00391C4.10156 5.89453 3.79297 7.21484 3.79297 8.96484V9.96094C3.79297 13.5 5.10156 15.2695 7.71875 15.2695C8.51562 15.2695 9.11719 15.1836 9.52344 15.0117C9.92969 14.832 10.2227 14.6562 10.4023 14.4844V11.6484H7.30859V8.96484H14.0938V15.8438ZM16.0977 11.543C16.0977 10.3086 16.332 9.20703 16.8008 8.23828C17.2695 7.26172 17.9531 6.49219 18.8516 5.92969C19.75 5.36719 20.8398 5.08594 22.1211 5.08594C23.418 5.08594 24.5156 5.36719 25.4141 5.92969C26.3203 6.49219 27.0039 7.26172 27.4648 8.23828C27.9336 9.20703 28.168 10.3086 28.168 11.543V11.7891C28.168 13.0156 27.9336 14.1172 27.4648 15.0938C27.0039 16.0625 26.3242 16.8281 25.4258 17.3906C24.5273 17.9531 23.4336 18.2344 22.1445 18.2344C20.8555 18.2344 19.7578 17.9531 18.8516 17.3906C17.9531 16.8281 17.2695 16.0625 16.8008 15.0938C16.332 14.1172 16.0977 13.0156 16.0977 11.7891V11.543ZM19.6484 11.7891C19.6484 12.4531 19.7266 13.0586 19.8828 13.6055C20.0391 14.1523 20.3008 14.5859 20.668 14.9062C21.0352 15.2266 21.5273 15.3867 22.1445 15.3867C23.0586 15.3867 23.6992 15.0391 24.0664 14.3438C24.4414 13.6406 24.6289 12.7891 24.6289 11.7891V11.543C24.6289 10.8945 24.5469 10.2969 24.3828 9.75C24.2266 9.20312 23.9648 8.76562 23.5977 8.4375C23.2383 8.10156 22.7461 7.93359 22.1211 7.93359C21.5117 7.93359 21.0273 8.10156 20.668 8.4375C20.3086 8.76562 20.0469 9.20312 19.8828 9.75C19.7266 10.2969 19.6484 10.8945 19.6484 11.543V11.7891ZM33.9219 18H30.3711V0H33.9219V18ZM36.1133 11.5664C36.1133 10.2773 36.3047 9.14844 36.6875 8.17969C37.0781 7.20312 37.6406 6.44531 38.375 5.90625C39.1172 5.35938 40.0195 5.08594 41.082 5.08594C41.7148 5.08594 42.2773 5.20312 42.7695 5.4375C43.2617 5.67188 43.6953 6.00391 44.0703 6.43359V0H47.6328V18H44.4336L44.2578 16.6641C43.875 17.1562 43.418 17.543 42.8867 17.8242C42.3555 18.0977 41.7461 18.2344 41.0586 18.2344C40.0117 18.2344 39.1172 17.957 38.375 17.4023C37.6406 16.8398 37.0781 16.0742 36.6875 15.1055C36.3047 14.1367 36.1133 13.0391 36.1133 11.8125V11.5664ZM39.6523 11.8125C39.6523 12.8047 39.8203 13.6445 40.1562 14.332C40.5 15.0195 41.1016 15.3633 41.9609 15.3633C42.4766 15.3633 42.9062 15.2539 43.25 15.0352C43.6016 14.8164 43.875 14.5117 44.0703 14.1211V9.1875C43.6641 8.36719 42.9688 7.95703 41.9844 7.95703C41.1328 7.95703 40.5312 8.30469 40.1797 9C39.8281 9.6875 39.6523 10.543 39.6523 11.5664V11.8125Z" fill="#FFC700"/>
<path d="M63.1602 12.6797C62.9805 14.4141 62.3594 15.7734 61.2969 16.7578C60.2344 17.7422 58.7617 18.2344 56.8789 18.2344C55.5898 18.2344 54.4648 17.9141 53.5039 17.2734C52.543 16.6328 51.7969 15.7344 51.2656 14.5781C50.7344 13.4219 50.4688 12.0781 50.4688 10.5469V8.40234C50.4688 6.86328 50.7344 5.51953 51.2656 4.37109C51.7969 3.21484 52.5508 2.31641 53.5273 1.67578C54.5039 1.02734 55.6562 0.703125 56.9844 0.703125C58.8047 0.703125 60.2461 1.19531 61.3086 2.17969C62.3711 3.15625 62.9883 4.51953 63.1602 6.26953H61.7188C61.5469 4.88672 61.082 3.82031 60.3242 3.07031C59.5664 2.3125 58.4531 1.93359 56.9844 1.93359C55.9297 1.93359 55.0234 2.20312 54.2656 2.74219C53.5078 3.27344 52.9258 4.02344 52.5195 4.99219C52.1133 5.96094 51.9102 7.08984 51.9102 8.37891V10.5469C51.9102 11.7969 52.1055 12.9102 52.4961 13.8867C52.8867 14.8555 53.4492 15.6211 54.1836 16.1836C54.9258 16.7383 55.8242 17.0156 56.8789 17.0156C58.3945 17.0156 59.5312 16.6523 60.2891 15.9258C61.0547 15.1992 61.5312 14.1172 61.7188 12.6797H63.1602ZM74.0586 9.1875C74.0586 8.28125 73.7773 7.56641 73.2148 7.04297C72.6523 6.51953 71.8438 6.25781 70.7891 6.25781C69.8047 6.25781 68.9922 6.50781 68.3516 7.00781C67.7109 7.50781 67.3906 8.11328 67.3906 8.82422L65.9844 8.8125C65.9844 8.17969 66.1875 7.57812 66.5938 7.00781C67.0078 6.4375 67.5781 5.97656 68.3047 5.625C69.0391 5.26562 69.8867 5.08594 70.8477 5.08594C72.1992 5.08594 73.3047 5.42969 74.1641 6.11719C75.0312 6.80469 75.4648 7.83594 75.4648 9.21094V15.3398C75.4648 15.7773 75.4961 16.2305 75.5586 16.6992C75.6289 17.168 75.7266 17.5547 75.8516 17.8594V18H74.3516C74.2734 17.7812 74.2109 17.5156 74.1641 17.2031C74.1172 16.8828 74.0859 16.5586 74.0703 16.2305C73.6484 16.7695 73.0781 17.2383 72.3594 17.6367C71.6406 18.0352 70.7812 18.2344 69.7812 18.2344C68.5391 18.2344 67.543 17.8945 66.793 17.2148C66.0508 16.5273 65.6797 15.668 65.6797 14.6367C65.6797 13.3945 66.1953 12.4141 67.2266 11.6953C68.2656 10.9766 69.6797 10.6172 71.4688 10.6172H74.0586V9.1875ZM69.9336 16.9922C70.9492 16.9922 71.8125 16.75 72.5234 16.2656C73.2422 15.7812 73.7539 15.1914 74.0586 14.4961V11.6953H71.6562C70.2188 11.6953 69.0977 11.9492 68.293 12.457C67.4883 12.957 67.0859 13.6406 67.0859 14.5078C67.0859 15.2031 67.3398 15.793 67.8477 16.2773C68.3633 16.7539 69.0586 16.9922 69.9336 16.9922ZM80.7734 18H79.3789V0H80.7734V18ZM84.5234 1.65234C84.5234 1.38672 84.6055 1.16406 84.7695 0.984375C84.9414 0.796875 85.1758 0.703125 85.4727 0.703125C85.7773 0.703125 86.0156 0.796875 86.1875 0.984375C86.3594 1.16406 86.4453 1.38672 86.4453 1.65234C86.4453 1.91016 86.3594 2.12891 86.1875 2.30859C86.0156 2.48828 85.7773 2.57812 85.4727 2.57812C85.1758 2.57812 84.9414 2.48828 84.7695 2.30859C84.6055 2.12891 84.5234 1.91016 84.5234 1.65234ZM86.1641 18H84.7695V5.32031H86.1641V18ZM97.5898 14.7656C97.5898 14.4219 97.5 14.082 97.3203 13.7461C97.1484 13.4102 96.8203 13.1016 96.3359 12.8203C95.8516 12.5391 95.1367 12.2969 94.1914 12.0938C92.7852 11.7969 91.6953 11.3906 90.9219 10.875C90.1562 10.3516 89.7734 9.57031 89.7734 8.53125C89.7734 7.90625 89.9531 7.33203 90.3125 6.80859C90.6797 6.28516 91.1953 5.86719 91.8594 5.55469C92.5312 5.24219 93.3242 5.08594 94.2383 5.08594C95.707 5.08594 96.8555 5.44531 97.6836 6.16406C98.5117 6.88281 98.9258 7.78516 98.9258 8.87109H97.5078C97.5078 8.21484 97.2266 7.61719 96.6641 7.07812C96.1016 6.53906 95.293 6.26953 94.2383 6.26953C93.5117 6.26953 92.9219 6.38281 92.4688 6.60938C92.0156 6.82812 91.6836 7.10938 91.4727 7.45312C91.2695 7.78906 91.168 8.13281 91.168 8.48438C91.168 8.85938 91.2539 9.19531 91.4258 9.49219C91.5977 9.78125 91.9258 10.043 92.4102 10.2773C92.8945 10.5117 93.6094 10.7383 94.5547 10.957C96.0859 11.3086 97.207 11.7695 97.918 12.3398C98.6367 12.9023 98.9961 13.6875 98.9961 14.6953C98.9961 15.7422 98.5703 16.5938 97.7188 17.25C96.875 17.9062 95.7383 18.2344 94.3086 18.2344C93.2383 18.2344 92.332 18.0586 91.5898 17.707C90.8555 17.3477 90.2969 16.8789 89.9141 16.3008C89.5391 15.7227 89.3516 15.1016 89.3516 14.4375H90.7461C90.793 15.1016 91 15.625 91.3672 16.0078C91.7344 16.3828 92.1836 16.6523 92.7148 16.8164C93.2461 16.9727 93.7773 17.0508 94.3086 17.0508C95.3789 17.0508 96.1914 16.8203 96.7461 16.3594C97.3086 15.8906 97.5898 15.3594 97.5898 14.7656Z" fill="white"/>
</svg>
